<?xml version="1.0" encoding="UTF-8"?>
<svg id="Layer_1" data-name="Layer 1" xmlns="http://www.w3.org/2000/svg" viewBox="0 0 256 256">
  <defs>
    <style>
      .cls-1 {
        fill: #f9aa54;
      }

      .cls-2 {
        fill: #321f36;
      }

      .cls-3 {
        fill: #5e87c5;
      }
    </style>
  </defs>
  <rect class="cls-2" x=".93" width="255.07" height="256"/>
  <g>
    <path class="cls-3" d="M147.42,146.37c9.69-6.43,16.1-17.44,16.1-29.91,0-19.79-16.1-35.9-35.9-35.9s-35.9,16.1-35.9,35.9c0,12.48,6.41,23.48,16.1,29.91-21.93,8.09-37.64,29.14-37.64,53.84h9.57c0-26.39,21.47-47.86,47.86-47.86s47.86,21.47,47.86,47.86h9.57c0-24.7-15.71-45.75-37.64-53.84Zm-46.12-29.91c0-14.52,11.81-26.32,26.32-26.32s26.32,11.81,26.32,26.32-11.81,26.32-26.32,26.32-26.32-11.81-26.32-26.32Z"/>
    <path class="cls-1" d="M195.28,122.43c9.69-6.43,16.1-17.44,16.1-29.91,0-19.79-16.1-35.9-35.9-35.9-9.59,0-18.29,3.8-24.74,9.95-2.39,2.28-4.45,4.88-6.14,7.73,2.99,1.21,5.83,2.7,8.46,4.48,1.69-2.75,3.87-5.17,6.42-7.13,4.44-3.41,9.97-5.46,15.99-5.46,14.52,0,26.32,11.81,26.32,26.32,0,12.05-8.15,22.21-19.22,25.32-2.27,.64-4.64,1-7.11,1-.85,0-1.68-.05-2.51-.13-.17,3.45-.71,6.79-1.61,9.99,1.37-.12,2.72-.29,4.12-.29,1.94,0,3.85,.15,5.73,.38,23.69,2.85,42.13,23.04,42.13,47.48h9.57c0-24.7-15.71-45.75-37.64-53.84Z"/>
    <path class="cls-1" d="M79.76,128.42c1.4,0,2.75,.18,4.12,.29-.9-3.2-1.44-6.55-1.61-9.99-.83,.08-1.66,.13-2.51,.13-2.47,0-4.84-.37-7.11-1-11.07-3.11-19.22-13.27-19.22-25.32,0-14.52,11.81-26.32,26.32-26.32,6.02,0,11.55,2.05,15.99,5.46,2.55,1.96,4.73,4.38,6.42,7.13,2.63-1.78,5.48-3.28,8.46-4.48-1.69-2.85-3.75-5.46-6.14-7.73-6.45-6.15-15.15-9.95-24.74-9.95-19.79,0-35.9,16.1-35.9,35.9,0,12.48,6.41,23.48,16.1,29.91-21.93,8.09-37.64,29.14-37.64,53.84h9.57c0-24.45,18.44-44.64,42.13-47.48,1.88-.23,3.79-.38,5.73-.38Z"/>
  </g>
</svg>